<svg width="80" height="80" viewBox="0 0 80 80" fill="none" xmlns="http://www.w3.org/2000/svg">
<path d="M33 44C33 46.76 30.76 49 28 49C25.24 49 23 46.76 23 44C23 41.24 25.24 39 28 39C30.76 39 33 41.24 33 44ZM52 39C49.24 39 47 41.24 47 44C47 46.76 49.24 49 52 49C54.76 49 57 46.76 57 44C57 41.24 54.76 39 52 39ZM80 40C80 62.08 62.08 80 40 80C17.92 80 0 62.08 0 40C0 17.92 17.92 0 40 0C62.08 0 80 17.92 80 40ZM34.64 8.48C40.24 17.76 50.4 24 62 24C63.84 24 65.64 23.8 67.36 23.52C61.76 14.24 51.6 8 40 8C38.16 8 36.36 8.2 34.64 8.48ZM9.68 29.88C16.52 26 21.8 19.68 24.32 12.12C17.48 16 12.2 22.32 9.68 29.88ZM72 40C72 36.88 71.52 33.88 70.68 31.04C67.88 31.64 65 32 62 32C49.48 32 38.32 26.24 30.96 17.24C26.76 27.48 18.4 35.52 8 39.44C8.04 39.6 8 39.8 8 40C8 57.64 22.36 72 40 72C57.64 72 72 57.64 72 40Z" fill="white"/>
</svg>
